<svg width="72" height="78" viewBox="0 0 72 78" xmlns="http://www.w3.org/2000/svg">
    <g fill="#FFF" fill-rule="nonzero">
        <path d="M26.178 35.094c4.932 0 7.308-2.628 7.308-6.48 0-3.816-2.376-6.552-7.308-6.552H9.906c-5.004 0-7.308 2.808-7.308 6.552 0 3.78 2.304 6.48 7.308 6.48h16.272zM19.122 20.55c1.692 0 2.664-1.296 2.664-2.592s-.828-2.484-2.664-2.484h-.396v-3.96c0-2.124-1.296-2.952-3.276-2.952-1.98 0-3.312.828-3.312 2.952v3.96h-2.124v-3.96c0-2.124-1.332-2.952-3.312-2.952-1.98 0-3.276.828-3.276 2.952v3.96h-.108c-1.836 0-2.664 1.188-2.664 2.484s.972 2.592 2.664 2.592h15.804zm6.876.288h7.128V4.674c0-2.268-1.764-3.492-3.6-3.492s-3.492 1.152-3.528 3.384h-1.872c-1.908 0-2.628 1.152-2.628 2.664 0 1.512.864 2.592 2.628 2.592h1.872v2.016h-1.872c-1.908 0-2.628 1.116-2.628 2.628s.864 2.628 2.628 2.628h1.872v3.744zm-7.74-13.32c1.692 0 2.664-1.296 2.664-2.664s-.828-2.7-2.664-2.7H3.786c-1.836 0-2.664 1.332-2.664 2.7s.972 2.664 2.664 2.664h14.472zM11.85 30.234c-1.476 0-1.944-.72-1.944-1.62 0-.9.468-1.548 1.944-1.548h12.384c1.476 0 1.944.648 1.944 1.548s-.468 1.62-1.944 1.62H11.85zM39.12 27.57c-1.8.216-2.664 1.368-2.664 2.88 0 2.124 1.692 3.168 3.456 3.096 9.324-.468 16.236-5.076 16.236-17.82v-7.92c0-3.348-1.584-5.256-5.652-5.256H39.912c-2.196 0-3.024 1.656-3.024 3.096 0 1.476.864 3.132 3.024 3.132h8.208c.576 0 .9.396.9.9v6.012c0 8.856-4.248 11.16-9.9 11.88zm21.384 7.416h7.128v-14.94h1.188c2.16 0 2.844-1.656 2.844-3.132 0-1.44-.648-3.132-2.844-3.132h-1.188V4.674c0-2.268-1.728-3.492-3.564-3.492-1.872 0-3.564 1.188-3.564 3.492v30.312zM3.426 70.434C1.23 70.434.402 71.91.402 73.35c0 1.476.864 2.916 3.024 2.916h27.648c2.16 0 3.024-1.44 3.024-2.916 0-1.44-.828-2.916-3.024-2.916H20.922v-6.768h11.34V49.734c0-4.176-.792-5.472-5.148-5.472H7.386c-4.356 0-5.148 1.296-5.148 5.472v8.496c0 4.176.792 5.436 5.148 5.436h6.192v6.768H3.426zm6.012-13.536V51.03c0-.648.144-1.08.864-1.08h13.86c.72 0 .9.432.9 1.08v6.984H10.554c-.864 0-1.116-.396-1.116-1.116zM68.172 76.986v-6.66c0-4.176-.792-5.4-5.148-5.4H42.54c-4.356 0-5.148 1.224-5.148 5.4v1.224c0 4.176.792 5.436 5.148 5.436h25.632zM43.836 43.542c-4.536 0-6.696 2.736-6.696 6.156 0 3.42 2.16 6.156 6.696 6.156h17.928c4.536 0 6.696-2.736 6.696-6.156 0-3.42-2.16-6.156-6.696-6.156H43.836zM38.76 57.618c-2.052 0-2.808 1.404-2.808 2.736 0 1.368.792 2.7 2.808 2.7h28.08c2.016 0 2.808-1.332 2.808-2.7 0-1.332-.756-2.736-2.808-2.736H38.76zm7.236-6.66c-1.188 0-1.548-.612-1.548-1.26s.36-1.26 1.548-1.26h13.608c1.188 0 1.548.612 1.548 1.26s-.36 1.26-1.548 1.26H45.996zM44.592 71.19v-.504c0-.648.144-.972.864-.972h14.652c.72 0 .9.324.9.972v1.512H45.456c-.72 0-.864-.288-.864-1.008z"/>
    </g>
</svg>
