<svg width="104" height="32" viewBox="0 0 104 32" xmlns="http://www.w3.org/2000/svg">
    <g fill-rule="nonzero" fill="none">
        <path d="M18.989 28c3.476 0 5.15-1.86 5.15-4.586 0-2.7-1.674-4.637-5.15-4.637H7.52c-3.527 0-5.15 1.987-5.15 4.637C2.37 26.089 3.993 28 7.52 28h11.468zm-4.973-10.293c1.192 0 1.877-.917 1.877-1.834 0-.918-.583-1.758-1.877-1.758h-.28v-2.803c0-1.503-.913-2.09-2.308-2.09-1.396 0-2.334.587-2.334 2.09v2.803H7.597v-2.803c0-1.503-.94-2.09-2.335-2.09s-2.308.587-2.308 2.09v2.803h-.076c-1.294 0-1.878.84-1.878 1.758 0 .917.685 1.834 1.878 1.834h11.138zm4.846.204h5.023V6.47C23.885 4.866 22.642 4 21.348 4c-1.294 0-2.46.815-2.486 2.395h-1.32c-1.344 0-1.852.815-1.852 1.885s.61 1.835 1.852 1.835h1.32v1.426h-1.32c-1.344 0-1.852.79-1.852 1.86s.61 1.86 1.852 1.86h1.32v2.65zm-5.455-9.427c1.192 0 1.877-.917 1.877-1.885s-.583-1.911-1.877-1.911h-10.2c-1.294 0-1.877.943-1.877 1.91 0 .969.685 1.886 1.877 1.886h10.2zM8.89 24.561c-1.04 0-1.37-.51-1.37-1.147s.33-1.096 1.37-1.096h8.728c1.04 0 1.37.46 1.37 1.096 0 .637-.33 1.147-1.37 1.147H8.89z" fill="#FF3D3B"/>
        <path d="M27.725 22.675c-1.269.153-1.878.968-1.878 2.038 0 1.504 1.193 2.242 2.436 2.191 6.571-.33 11.443-3.592 11.443-12.611V8.688c0-2.37-1.117-3.72-3.984-3.72h-7.46c-1.547 0-2.13 1.172-2.13 2.191 0 1.045.609 2.217 2.13 2.217h5.786c.406 0 .634.28.634.637v4.255c0 6.267-2.994 7.898-6.977 8.407zm15.07 5.249h5.024V17.35h.838c1.522 0 2.004-1.172 2.004-2.216 0-1.02-.457-2.217-2.004-2.217h-.838V6.471C47.82 4.866 46.601 4 45.307 4c-1.319 0-2.511.84-2.511 2.471v21.453z" fill="#FF9F00"/>
        <path d="M55.714 23.287c-1.548 0-2.132 1.044-2.132 2.063 0 1.045.61 2.064 2.132 2.064h19.485c1.522 0 2.131-1.02 2.131-2.064 0-1.019-.583-2.063-2.13-2.063h-7.156v-4.79h7.992v-9.86c0-2.955-.558-3.873-3.628-3.873H58.504c-3.07 0-3.628.918-3.628 3.873v6.013c0 2.955.558 3.847 3.628 3.847h4.364v4.79h-7.154zm4.237-9.58V9.554c0-.458.101-.764.609-.764h9.768c.507 0 .634.306.634.764v4.943H60.737c-.609 0-.786-.28-.786-.79z" fill="#0C61C8"/>
        <path d="M100.96 27.924V23.21c0-2.955-.558-3.821-3.628-3.821H82.895c-3.07 0-3.628.866-3.628 3.821v.866c0 2.956.558 3.848 3.628 3.848h18.065zM83.808 4.254c-3.196 0-4.719 1.937-4.719 4.357s1.523 4.357 4.72 4.357h12.635c3.196 0 4.719-1.936 4.719-4.357 0-2.42-1.523-4.356-4.72-4.356H83.809zm-3.577 9.963c-1.446 0-1.98.993-1.98 1.936 0 .968.56 1.91 1.98 1.91h19.79c1.42 0 1.979-.942 1.979-1.91 0-.943-.533-1.936-1.979-1.936h-19.79zm5.1-4.714c-.838 0-1.091-.433-1.091-.892 0-.458.253-.891 1.09-.891h9.591c.838 0 1.091.433 1.091.891 0 .46-.253.892-1.09.892H85.33zm-.99 14.319v-.357c0-.459.102-.688.61-.688h10.325c.508 0 .635.23.635.688v1.07H84.95c-.508 0-.61-.204-.61-.713z" fill="#00AE5B"/>
    </g>
</svg>
