<svg width="20" height="20" viewBox="0 0 20 20" xmlns="http://www.w3.org/2000/svg">
    <g fill="#4C545F" fill-rule="nonzero">
        <path d="m4.591 4.793 1.228 1.229c-.724.373-1.404.84-2.035 1.388C2.602 8.434 1.667 9.783 1.667 10c0 .217.935 1.566 2.117 2.59C5.522 14.097 7.635 15 10 15a9.02 9.02 0 0 0 3.91-.887l1.24 1.239A10.706 10.706 0 0 1 10 16.667c-2.797 0-5.285-1.064-7.308-2.817C1.175 12.534 0 10.84 0 10c0-.84 1.175-2.534 2.692-3.85.595-.515 1.229-.97 1.899-1.357zm2.363 2.364 1.18 1.18a2.5 2.5 0 0 0 3.53 3.53l1.18 1.179a4.167 4.167 0 0 1-5.89-5.888zM10 3.333c2.797 0 5.285 1.064 7.308 2.817C18.825 7.466 20 9.16 20 10c0 .832-1.153 2.503-2.651 3.814l-1.182-1.182.049-.042c1.182-1.024 2.117-2.373 2.117-2.59 0-.217-.935-1.566-2.117-2.59C14.478 5.903 12.365 5 10 5c-.464 0-.919.035-1.363.102L7.23 3.696A10.673 10.673 0 0 1 10 3.333zm0 2.5a4.167 4.167 0 0 1 4.125 4.757L9.41 5.875c.193-.028.39-.042.59-.042z"/>
        <path d="m2.256 1.077 16.667 16.667-1.179 1.179L1.077 2.256z"/>
    </g>
</svg>
