<svg width="24" height="24" viewBox="0 0 24 24" xmlns="http://www.w3.org/2000/svg">
    <path d="M24 11.926c-.028-2.301-.71-4.546-1.963-6.47a12.021 12.021 0 0 0-5.114-4.393 11.935 11.935 0 0 0-6.659-.936A11.967 11.967 0 0 0 4.15 2.942 12.082 12.082 0 0 0 .5 8.623a12.146 12.146 0 0 0-.04 6.765 12.084 12.084 0 0 0 3.584 5.725A11.968 11.968 0 0 0 10.124 24v-8.558h-3v-3.516h3V9.254a4.295 4.295 0 0 1 1.15-3.428 4.243 4.243 0 0 1 3.35-1.31c.9.012 1.798.092 2.686.24v3.02h-1.5a1.73 1.73 0 0 0-1.43.48 1.75 1.75 0 0 0-.52 1.42v2.28h3.33l-.54 3.517h-2.776v8.452a11.982 11.982 0 0 0 7.273-4.112A12.12 12.12 0 0 0 24 11.926z" fill="#0866FF" fill-rule="nonzero"/>
</svg>
