<svg width="24" height="24" viewBox="0 0 24 24" xmlns="http://www.w3.org/2000/svg">
    <g fill="none" fill-rule="evenodd">
        <path d="M0 0h24v24H0z"/>
        <path d="M12 .75C5.79.75.75 5.79.75 12S5.79 23.25 12 23.25h5.625V21H12c-4.883 0-9-4.117-9-9s4.117-9 9-9 9 4.117 9 9v1.609c0 .889-.799 1.766-1.688 1.766-.888 0-1.687-.877-1.687-1.766V12A5.627 5.627 0 0 0 12 6.375 5.627 5.627 0 0 0 6.375 12 5.627 5.627 0 0 0 12 17.625c1.553 0 2.97-.63 3.982-1.654.732 1.002 1.992 1.654 3.33 1.654 2.217 0 3.938-1.8 3.938-4.016V12C23.25 5.79 18.21.75 12 .75zm0 14.625A3.37 3.37 0 0 1 8.625 12 3.37 3.37 0 0 1 12 8.625 3.37 3.37 0 0 1 15.375 12 3.37 3.37 0 0 1 12 15.375z" fill="#1C232F" fill-rule="nonzero"/>
    </g>
</svg>
