<svg width="24" height="24" viewBox="0 0 24 24" xmlns="http://www.w3.org/2000/svg">
    <g fill-rule="nonzero" fill="none">
        <path d="M23 12.244c0-.904-.075-1.564-.237-2.248H12.224v4.082h6.186c-.124 1.014-.798 2.542-2.294 3.569l-.021.136 3.332 2.53.23.023c2.12-1.92 3.343-4.743 3.343-8.092" fill="#4285F4"/>
        <path d="M12.224 23c3.031 0 5.575-.978 7.434-2.664l-3.542-2.69c-.948.648-2.22 1.1-3.892 1.1a6.744 6.744 0 0 1-6.385-4.57l-.132.01-3.464 2.628-.046.124C4.043 20.53 7.834 23 12.224 23" fill="#34A853"/>
        <path d="M5.839 14.176A6.65 6.65 0 0 1 5.465 12c0-.758.137-1.491.361-2.176L5.82 9.68l-3.508-2.67-.115.053A10.831 10.831 0 0 0 1 12c0 1.772.437 3.447 1.197 4.938l3.642-2.762" fill="#FBBC05"/>
        <path d="M12.224 5.253c2.108 0 3.53.893 4.34 1.638l3.168-3.031C17.787 2.088 15.255 1 12.224 1 7.834 1 4.043 3.469 2.197 7.062l3.63 2.762a6.773 6.773 0 0 1 6.397-4.57" fill="#EB4335"/>
    </g>
</svg>
